<?xml version="1.0" standalone="no"?>
<!DOCTYPE svg PUBLIC "-//W3C//DTD SVG 20010904//EN"
 "http://www.w3.org/TR/2001/REC-SVG-20010904/DTD/svg10.dtd">
<svg version="1.0" xmlns="http://www.w3.org/2000/svg"
 width="965.000000pt" height="965.000000pt" viewBox="0 0 965.000000 965.000000"
 preserveAspectRatio="xMidYMid meet">
<metadata>
Created by potrace 1.14, written by Peter Selinger 2001-2017
</metadata>
<g transform="translate(0.000000,965.000000) scale(0.100000,-0.100000)"
fill="#000000" stroke="none">
<path d="M4487 9634 c-1 -1 -60 -5 -132 -9 -71 -4 -139 -8 -150 -10 -70 -7
-162 -18 -175 -20 -31 -5 -96 -16 -125 -20 -284 -42 -628 -135 -905 -245 -305
-120 -610 -282 -875 -461 -130 -88 -357 -261 -406 -309 -15 -14 -51 -45 -80
-69 -68 -56 -424 -413 -504 -505 -169 -195 -360 -458 -495 -681 -87 -144 -241
-458 -300 -610 -23 -60 -48 -123 -55 -140 -57 -133 -162 -528 -200 -750 -4
-22 -9 -49 -11 -60 -4 -25 -32 -227 -38 -280 -27 -231 -28 -933 -1 -1074 2
-10 6 -44 9 -76 15 -138 59 -388 96 -543 171 -715 514 -1368 1023 -1947 70
-79 355 -367 432 -436 52 -46 182 -158 200 -172 83 -64 217 -165 235 -177 12
-8 41 -29 64 -45 22 -17 53 -37 69 -44 15 -8 27 -18 27 -23 0 -4 5 -8 10 -8 6
0 41 -20 78 -44 80 -52 246 -147 285 -164 17 -7 25 -17 21 -24 -4 -6 -3 -8 4
-4 14 9 175 -68 165 -79 -5 -4 -2 -5 5 -1 7 4 36 -4 65 -17 28 -14 78 -35 110
-48 31 -12 57 -27 57 -31 0 -5 4 -7 9 -4 5 4 22 1 38 -5 74 -30 273 -97 273
-92 0 3 6 1 13 -4 6 -6 44 -18 84 -28 40 -11 69 -23 66 -28 -3 -6 -1 -7 5 -3
6 3 32 1 59 -5 26 -6 59 -13 72 -15 14 -3 28 -7 32 -9 4 -3 24 -7 45 -11 22
-3 55 -9 74 -14 19 -5 53 -11 75 -15 68 -9 110 -17 118 -22 4 -3 33 -6 65 -9
31 -2 66 -5 78 -8 11 -2 54 -7 95 -10 41 -4 101 -9 134 -12 184 -18 785 -17
803 1 3 2 14 0 25 -6 14 -8 18 -8 13 0 -5 7 7 11 36 12 62 2 123 7 123 9 0 2
11 3 25 4 24 2 102 14 142 21 11 3 41 7 67 11 67 9 70 9 136 24 33 8 68 15 78
16 9 1 19 3 22 4 3 1 14 4 25 5 11 1 22 4 25 5 3 1 8 3 13 4 60 14 89 19 96
17 4 -1 13 2 20 7 10 9 68 26 91 27 6 0 15 3 20 6 7 5 155 53 195 64 3 1 12 5
20 8 43 19 100 35 100 29 0 -4 4 -2 8 4 10 15 72 35 86 27 6 -3 8 -3 4 2 -10
11 191 97 206 88 6 -3 8 -3 4 2 -4 4 57 40 135 80 78 39 166 86 195 103 29 18
55 32 58 32 3 0 17 8 32 19 118 80 173 112 183 105 7 -4 9 -3 6 3 -5 8 117
103 192 148 9 6 18 12 21 15 23 26 129 98 135 92 5 -4 5 -2 2 4 -4 7 10 24 31
40 20 15 39 30 42 33 3 4 37 33 75 66 39 33 78 68 87 78 10 11 22 16 29 11 7
-4 9 -3 6 3 -8 13 37 56 48 46 4 -5 6 -3 2 2 -3 6 39 55 94 109 54 54 99 103
99 108 0 6 7 7 16 4 8 -3 13 -2 10 2 -3 5 12 28 33 51 22 24 51 58 66 77 15
19 32 31 38 27 5 -3 7 -2 4 4 -5 8 11 31 83 117 8 9 23 26 33 37 9 10 17 23
17 29 0 6 4 10 8 10 4 0 19 18 32 40 14 22 31 38 38 35 7 -3 10 0 7 5 -5 8 25
62 45 80 3 3 19 25 35 50 17 25 36 51 43 58 6 7 12 18 12 23 0 6 5 7 12 3 6
-4 8 -3 5 2 -6 11 56 117 64 109 3 -3 6 1 6 7 0 24 65 128 75 121 6 -3 8 -1 5
4 -4 6 4 30 18 54 13 24 42 79 62 121 28 57 42 76 53 72 11 -4 12 -2 3 6 -8 9
-6 23 12 59 12 25 35 73 49 106 15 33 34 74 41 90 35 73 176 497 190 570 2 11
4 20 5 20 1 0 3 11 6 24 2 13 13 58 23 100 11 42 22 94 26 116 4 22 8 47 10
55 2 8 4 21 4 28 1 8 6 10 14 6 9 -5 9 -4 1 5 -8 9 -7 33 2 89 16 88 27 179
26 204 0 10 2 18 6 18 4 0 8 24 8 53 1 28 4 77 7 107 3 30 6 68 6 83 1 20 5
26 14 21 9 -6 9 -4 1 7 -5 8 -9 34 -8 59 8 147 1 591 -10 608 -3 4 -1 14 4 22
5 8 5 21 0 29 -7 14 -13 67 -25 231 -2 25 -4 45 -6 45 -1 0 -3 14 -4 30 -2 17
-4 30 -5 30 -1 0 -3 9 -5 20 -6 34 -17 98 -21 130 -3 17 -9 51 -15 76 -11 49
-11 50 -24 114 -10 56 -43 181 -61 234 -8 24 -13 50 -10 58 3 7 0 13 -5 13 -7
0 -9 11 -7 25 3 13 1 22 -3 19 -5 -3 -11 8 -14 23 -4 15 -11 37 -16 48 -6 12
-11 27 -13 35 -2 8 -6 22 -9 30 -22 51 -36 104 -30 113 3 5 2 7 -4 4 -5 -3
-15 11 -22 31 -7 20 -21 56 -32 80 -11 25 -17 53 -14 65 4 14 3 18 -2 9 -7 -8
-20 12 -43 65 -37 85 -171 351 -198 392 -9 14 -22 35 -29 46 -59 101 -100 166
-124 196 -16 20 -29 42 -29 48 0 6 -4 11 -8 11 -12 0 -42 56 -34 65 4 5 1 5
-5 1 -7 -4 -13 -3 -13 2 0 4 -9 18 -21 31 -11 12 -18 28 -15 36 3 9 0 12 -10
8 -7 -3 -14 -1 -14 3 0 11 -122 166 -210 267 -90 104 -135 152 -270 287 -198
199 -294 284 -490 437 -487 379 -1063 661 -1650 808 -131 33 -273 63 -325 70
-11 1 -33 5 -50 8 -34 8 -68 13 -140 22 -27 4 -61 8 -75 10 -14 2 -59 7 -100
10 -41 4 -91 9 -110 12 -35 4 -638 12 -643 7z"/>
<path d="M9593 4165 c0 -8 4 -12 9 -9 5 3 6 10 3 15 -9 13 -12 11 -12 -6z"/>
<path d="M7890 1171 c0 -6 4 -13 10 -16 6 -3 7 1 4 9 -7 18 -14 21 -14 7z"/>
<path d="M7753 975 c0 -8 4 -12 9 -9 5 3 6 10 3 15 -9 13 -12 11 -12 -6z"/>
<path d="M6870 526 c0 -2 8 -10 18 -17 15 -13 16 -12 3 4 -13 16 -21 21 -21
13z"/>
<path d="M6710 486 c0 -2 8 -10 18 -17 15 -13 16 -12 3 4 -13 16 -21 21 -21
13z"/>
<path d="M3236 323 c-6 -14 -5 -15 5 -6 7 7 10 15 7 18 -3 3 -9 -2 -12 -12z"/>
<path d="M6546 312 c-2 -4 4 -8 14 -8 10 0 16 4 14 8 -3 4 -9 8 -14 8 -5 0
-11 -4 -14 -8z"/>
</g>
</svg>
